<?xml version="1.0" standalone="no"?>
<!DOCTYPE svg PUBLIC "-//W3C//DTD SVG 20010904//EN"
 "http://www.w3.org/TR/2001/REC-SVG-20010904/DTD/svg10.dtd">
<svg version="1.0" xmlns="http://www.w3.org/2000/svg"
 width="400.000000pt" height="200.000000pt" viewBox="0 0 400.000000 200.000000"
 preserveAspectRatio="xMidYMid meet">

<g transform="translate(0.000000,200.000000) scale(0.100000,-0.100000)"
fill="#000000" stroke="none">
<path d="M0 1218 l0 -518 155 0 c148 0 155 1 155 20 0 19 -7 20 -135 20 l-135
0 0 474 0 474 36 7 c50 9 384 3 384 -7 0 -4 -45 -120 -100 -258 -55 -138 -100
-254 -100 -259 0 -7 72 -8 122 -2 3 1 14 24 23 51 l17 51 105 -3 105 -3 17
-43 c21 -54 29 -59 91 -56 l50 2 0 -84 0 -84 60 0 60 0 0 95 0 96 32 -17 c22
-11 48 -15 90 -12 50 4 63 9 93 38 19 18 40 49 46 68 l11 34 18 -39 c19 -43
69 -90 106 -99 13 -4 53 -4 88 -2 50 3 71 10 100 31 45 35 45 52 1 73 -32 15
-37 15 -60 0 -50 -33 -135 -8 -135 39 0 13 20 15 124 15 l125 0 -6 38 c-13 81
-64 136 -138 148 -89 13 -168 -24 -201 -94 l-19 -39 -25 45 c-55 100 -126 115
-254 54 -5 -3 -6 3 -3 12 5 14 -2 16 -53 16 l-59 0 -3 -146 -3 -146 -97 238
c-53 131 -94 242 -92 246 3 4 201 7 442 8 240 0 445 0 455 0 9 0 17 8 17 18 0
16 -43 17 -755 17 l-755 0 0 -517z m561 234 l27 -67 -55 -3 c-30 -2 -57 -1
-59 1 -2 2 8 36 23 76 14 39 29 69 32 65 3 -3 18 -36 32 -72z m853 -38 c27
-27 18 -34 -44 -34 -61 0 -75 11 -48 38 17 17 74 15 92 -4z m-379 -29 c40 -39
32 -96 -16 -121 -55 -28 -113 9 -113 73 0 68 80 98 129 48z"/>
<path d="M2060 1732 c-14 -5 -12 -32 3 -32 6 0 422 0 923 0 501 0 925 -3 942
-6 l32 -6 0 -474 0 -474 -96 0 c-86 0 -95 -2 -92 -17 3 -16 18 -18 116 -21
l112 -3 0 518 0 518 -965 0 c-531 0 -969 -1 -975 -3z"/>
<path d="M1550 1694 c0 -3 33 -54 73 -112 41 -59 77 -112 80 -118 4 -6 -38
-74 -92 -150 -79 -111 -95 -140 -82 -145 17 -6 129 -5 134 2 2 2 29 41 61 87
32 45 60 82 64 82 4 -1 33 -39 65 -85 l58 -85 57 -1 c31 -1 67 -3 80 -4 12 -1
22 -1 22 1 0 3 -30 46 -68 97 -37 50 -84 115 -104 142 l-36 50 84 118 c46 65
84 120 84 122 0 3 -33 5 -73 5 l-73 0 -48 -70 c-27 -38 -49 -70 -51 -70 -1 0
-23 32 -49 70 l-46 70 -70 0 c-39 0 -70 -3 -70 -6z"/>
<path d="M2315 1625 c-4 -11 -12 -33 -17 -48 -11 -28 -70 -66 -105 -68 -10 0
0 -7 22 -15 52 -19 83 -50 91 -91 3 -18 10 -33 14 -33 4 0 11 15 14 33 8 41
39 72 91 91 22 8 32 15 22 15 -31 1 -87 32 -99 55 -6 11 -15 35 -18 51 -6 26
-8 28 -15 10z"/>
<path d="M2917 1503 c-10 -10 -8 -51 2 -57 5 -4 16 -3 25 0 21 8 21 50 0 58
-19 7 -19 7 -27 -1z m23 -28 c0 -8 -4 -15 -10 -15 -5 0 -10 7 -10 15 0 8 5 15
10 15 6 0 10 -7 10 -15z"/>
<path d="M3101 1483 c-1 -35 14 -52 32 -34 8 8 7 11 -5 11 -10 0 -18 10 -21
28 -4 26 -4 25 -6 -5z"/>
<path d="M3413 1503 c-19 -7 -16 -50 4 -57 24 -10 51 20 37 41 -12 19 -23 24
-41 16z m27 -28 c0 -8 -4 -15 -9 -15 -13 0 -22 16 -14 24 11 11 23 6 23 -9z"/>
<path d="M3563 1495 c-14 -11 -16 -18 -7 -32 14 -23 48 -23 52 0 2 10 -3 17
-13 17 -9 0 -13 -4 -10 -10 3 -5 1 -10 -4 -10 -21 0 -11 29 12 32 18 3 19 4 5
10 -9 4 -24 0 -35 -7z"/>
<path d="M3670 1495 c0 -8 -4 -15 -10 -15 -5 0 -10 5 -10 10 0 6 -4 10 -10 10
-5 0 -10 -11 -10 -25 0 -14 5 -25 10 -25 6 0 10 5 10 10 0 17 18 11 23 -7 3
-10 5 -1 6 20 0 20 -1 37 -4 37 -3 0 -5 -7 -5 -15z"/>
<path d="M2990 1492 c0 -6 -3 -18 -7 -28 -5 -14 -3 -16 12 -10 11 4 22 2 27
-6 6 -8 8 -2 6 17 -2 19 -9 31 -20 33 -10 2 -18 -1 -18 -6z"/>
<path d="M3062 1470 c0 -19 2 -27 5 -17 2 9 2 25 0 35 -3 9 -5 1 -5 -18z"/>
<path d="M3166 1475 c10 -34 19 -36 31 -6 10 27 9 29 -13 27 -19 -1 -22 -5
-18 -21z"/>
<path d="M3258 1493 c6 -2 12 -13 12 -24 0 -28 17 -23 22 6 5 22 2 25 -21 24
-14 0 -20 -3 -13 -6z"/>
<path d="M3320 1476 c0 -14 5 -28 10 -31 6 -3 10 1 10 9 0 9 5 16 10 16 6 0
10 -4 10 -10 0 -5 5 -10 10 -10 13 0 13 37 1 44 -5 4 -12 0 -15 -6 -5 -10 -7
-10 -12 0 -10 21 -24 13 -24 -12z"/>
<path d="M3480 1476 c0 -14 4 -27 9 -30 18 -11 41 6 41 30 0 30 -17 31 -23 2
l-4 -23 -2 23 c-1 30 -21 28 -21 -2z"/>
<path d="M3708 1493 c6 -2 12 -13 12 -24 0 -28 17 -23 22 6 5 22 2 25 -21 24
-14 0 -20 -3 -13 -6z"/>
<path d="M3770 1490 c0 -5 8 -14 18 -19 16 -10 16 -10 -2 -11 -14 0 -17 -3
-10 -10 12 -12 44 -3 44 11 0 5 -7 12 -16 16 -13 5 -13 7 -2 14 9 6 7 9 -9 9
-13 0 -23 -4 -23 -10z"/>
<path d="M2907 1383 c-4 -3 -7 -17 -7 -30 0 -19 5 -23 28 -22 19 1 21 3 8 6
-15 4 -16 7 -5 14 12 8 12 10 0 18 -11 7 -11 9 0 14 11 4 10 6 -2 6 -9 1 -19
-2 -22 -6z"/>
<path d="M2970 1377 c0 -7 6 -19 13 -26 10 -11 10 -13 0 -7 -7 4 -13 2 -13 -3
0 -6 9 -11 20 -11 21 0 27 24 9 36 -8 4 -7 9 2 15 10 6 8 9 -8 9 -13 0 -23 -6
-23 -13z"/>
<path d="M3038 1365 c6 -34 22 -42 22 -11 0 13 6 27 13 29 6 3 0 6 -14 6 -23
1 -26 -2 -21 -24z"/>
<path d="M3146 1376 c3 -8 1 -17 -5 -21 -17 -10 -13 -25 7 -25 12 0 18 9 19
30 2 20 -2 30 -12 30 -8 0 -12 -6 -9 -14z"/>
<path d="M3195 1370 c-8 -26 7 -45 30 -36 21 8 16 50 -7 54 -10 2 -19 -5 -23
-18z m27 -22 c-9 -9 -12 -7 -12 12 0 19 3 21 12 12 9 -9 9 -15 0 -24z"/>
<path d="M3280 1380 c13 -9 13 -12 -2 -21 -27 -15 -22 -29 10 -28 15 0 21 3
15 6 -9 3 -10 10 -3 22 11 21 4 31 -19 31 -14 0 -14 -2 -1 -10z"/>
<path d="M3332 1373 c-13 -24 -4 -43 19 -43 12 0 19 7 19 20 0 11 -6 20 -12
20 -9 0 -8 4 2 10 13 8 13 10 -2 10 -10 0 -21 -8 -26 -17z"/>
<path d="M2250 1000 c-24 -24 -24 -29 -4 -58 27 -39 84 -23 84 23 0 23 -28 55
-48 55 -7 0 -21 -9 -32 -20z m58 -12 c16 -16 15 -23 -4 -42 -12 -12 -20 -13
-35 -6 -19 10 -26 40 -12 53 10 11 38 8 51 -5z"/>
<path d="M2350 930 l0 -40 -55 0 -55 0 0 -110 0 -110 40 0 39 0 3 72 c2 46 7
73 16 76 8 2 12 -10 12 -43 0 -54 21 -101 51 -110 24 -8 89 2 89 14 0 28 -23
69 -36 64 -11 -4 -14 5 -14 37 0 37 2 41 21 38 14 -2 32 -22 52 -57 l30 -53
-36 -74 -37 -74 48 0 49 0 53 103 c29 56 68 130 87 165 l35 62 -52 0 c-51 0
-51 0 -71 -45 -11 -25 -22 -45 -24 -45 -1 0 -15 20 -29 45 -26 44 -28 45 -76
45 l-50 0 0 40 0 40 -45 0 -45 0 0 -40z m70 -14 c0 -25 5 -36 19 -41 31 -9 34
-34 6 -41 -22 -5 -25 -12 -25 -50 0 -33 4 -46 18 -51 20 -8 32 -23 32 -40 0
-8 -14 -13 -39 -13 -22 0 -43 6 -48 13 -4 6 -10 41 -13 77 -3 45 -9 64 -17 63
-18 -4 -16 36 2 43 9 4 15 19 15 40 0 30 3 34 25 34 22 0 25 -4 25 -34z m-110
-138 l0 -98 -30 0 -30 0 0 94 c0 97 3 105 43 103 15 -1 17 -13 17 -99z m256
36 l30 -55 24 53 c13 29 25 54 26 56 3 6 64 10 64 4 0 -4 -33 -70 -74 -147
-69 -131 -75 -140 -105 -143 -17 -2 -31 -1 -31 3 0 3 14 32 30 65 l30 60 -40
71 c-44 77 -46 85 -27 92 25 8 43 -6 73 -59z"/>
<path d="M633 889 c-99 -29 -112 -169 -19 -213 40 -19 62 -20 104 -5 31 11 31
11 16 42 -13 27 -21 32 -52 32 -31 0 -38 4 -40 23 -5 34 16 53 54 50 33 -2 34
-3 34 -46 0 -58 37 -97 104 -107 56 -9 96 6 131 47 l25 30 0 -36 c0 -35 1 -36
40 -36 l40 0 0 63 c0 70 9 91 36 85 16 -3 19 -14 22 -76 l3 -72 44 0 45 0 0
76 c0 72 1 75 23 72 20 -3 22 -9 25 -75 l3 -73 44 0 45 0 0 74 c0 95 -11 123
-55 142 -31 12 -39 12 -70 0 -31 -13 -39 -13 -70 0 -20 8 -41 11 -48 7 -6 -4
-38 -6 -69 -5 l-58 3 0 -43 -1 -43 -15 27 c-38 71 -151 83 -214 23 l-27 -26 4
24 c3 14 1 27 -4 30 -19 11 -70 15 -100 6z m81 -15 c25 -9 2 -44 -24 -37 -25
7 -70 -31 -70 -59 0 -29 38 -61 66 -55 17 3 28 -1 34 -13 13 -24 4 -30 -48
-30 -37 0 -50 6 -79 35 -32 32 -35 40 -30 73 11 67 87 111 151 86z m206 -9
c37 -19 50 -43 50 -90 0 -55 -44 -95 -104 -95 -58 0 -94 17 -112 51 -20 39
-17 72 7 103 37 47 104 60 159 31z m139 -3 c5 -9 12 -8 27 3 27 20 70 19 93
-4 18 -18 19 -18 42 0 32 24 74 24 99 -1 17 -17 20 -33 20 -100 0 -79 0 -80
-25 -80 -24 0 -25 3 -25 58 0 63 -19 102 -50 102 -28 0 -40 -30 -40 -100 0
-61 0 -61 -27 -58 -27 3 -28 6 -33 72 -6 76 -24 101 -57 80 -14 -9 -19 -28
-21 -83 -3 -72 -3 -72 -30 -69 -27 3 -27 4 -30 87 -2 46 -1 90 2 96 5 15 45
13 55 -3z"/>
<path d="M810 805 c-16 -31 -2 -70 30 -80 31 -10 70 19 70 53 0 36 -17 52 -55
52 -23 0 -35 -7 -45 -25z m82 -10 c14 -32 -5 -57 -41 -53 -18 2 -27 10 -29 26
-7 50 49 72 70 27z"/>
<path d="M1496 893 c-4 -4 -34 -6 -66 -5 l-60 3 0 -111 0 -110 40 0 39 0 3 73
c3 69 4 72 28 72 24 0 25 -3 28 -72 l3 -73 39 0 40 0 0 63 c0 70 9 91 36 85
16 -3 19 -14 22 -76 l3 -72 44 0 c44 0 45 1 45 33 l0 32 13 -25 c33 -66 191
-62 217 5 6 15 10 60 10 101 l0 74 -45 0 -44 0 -3 -72 c-3 -70 -4 -73 -28 -73
-24 0 -25 3 -28 73 l-3 72 -44 0 -45 0 -1 -37 c-1 -22 -3 -29 -6 -18 -13 51
-65 73 -120 50 -28 -12 -38 -12 -68 1 -40 16 -39 16 -49 7z m-58 -31 c3 -9 10
-8 25 3 29 20 73 19 95 -3 18 -18 19 -18 42 0 29 24 75 23 100 -2 17 -17 20
-33 20 -101 l0 -80 -27 3 c-27 3 -28 6 -33 72 -6 76 -24 101 -57 80 -14 -9
-19 -28 -21 -83 l-3 -71 -29 0 -29 0 -3 71 c-2 55 -7 74 -20 83 -13 8 -23 8
-35 0 -14 -9 -19 -28 -21 -83 l-3 -71 -29 0 -30 0 0 93 c0 52 2 96 5 99 9 9
49 2 53 -10z m372 -48 c0 -66 15 -94 50 -94 35 0 50 28 50 93 0 59 1 62 25 62
26 0 36 -21 30 -65 -2 -14 -4 -40 -4 -57 -1 -52 -30 -73 -101 -73 -85 0 -100
17 -100 113 0 41 2 76 5 78 2 3 13 5 25 5 18 0 20 -6 20 -62z"/>
<path d="M2117 893 c-4 -3 -34 -5 -67 -4 l-60 2 0 -111 0 -110 45 0 44 0 3 73
c3 69 4 72 28 72 24 0 25 -3 28 -72 l3 -73 44 0 45 0 0 74 c0 83 -10 120 -37
134 -27 14 -69 22 -76 15z m-57 -33 c8 -12 11 -12 28 3 25 23 77 22 102 -3 17
-17 20 -33 20 -100 0 -79 0 -80 -25 -80 -24 0 -25 3 -25 58 0 87 -37 126 -82
85 -14 -12 -18 -31 -18 -80 0 -61 -1 -63 -25 -63 -25 0 -25 0 -25 99 0 93 1
98 20 97 12 0 25 -8 30 -16z"/>
</g>
</svg>
